HIERARCHY
ROOT Hips
{
	OFFSET 0.00000 0.00000 0.00000
	CHANNELS 6 Xposition Yposition Zposition Zrotation Yrotation Xrotation 
	JOINT LHipJoint
	{
		OFFSET 0 0 0
		CHANNELS 3 Zrotation Yrotation Xrotation
		JOINT LeftHip
		{
			OFFSET 1.38280 -1.96574 0.54427
			CHANNELS 3 Zrotation Yrotation Xrotation
			JOINT LeftKnee
			{
				OFFSET 2.72096 -7.47578 0.00000
				CHANNELS 3 Zrotation Yrotation Xrotation
				JOINT LeftAnkle
				{
					OFFSET 2.73041 -7.50176 0.00000
					CHANNELS 3 Zrotation Yrotation Xrotation
					JOINT LeftToe
					{
						OFFSET 0.16150 -0.44371 2.18031
						CHANNELS 3 Zrotation Yrotation Xrotation
						End Site
						{
							OFFSET 0.00000 -0.00000 1.12127
						}
					}
				}
			}
		}
	}
	JOINT RHipJoint
	{
		OFFSET 0 0 0
		CHANNELS 3 Zrotation Yrotation Xrotation
		JOINT RightHip
		{
			OFFSET -1.57224 -1.96575 0.54427
			CHANNELS 3 Zrotation Yrotation Xrotation
			JOINT RightKnee
			{
				OFFSET -2.95935 -8.13076 0.00000
				CHANNELS 3 Zrotation Yrotation Xrotation
				JOINT RightAnkle
				{
					OFFSET -2.52345 -6.93311 0.00000
					CHANNELS 3 Zrotation Yrotation Xrotation
					JOINT RightToe
					{
						OFFSET -0.04475 -0.10171 1.86688
						CHANNELS 3 Zrotation Yrotation Xrotation
						End Site
						{
							OFFSET -0.00000 -0.00000 0.95157
						}
					}
				}
			}
		}
	}
	JOINT lowerback
	{
		OFFSET 0 0 0
		CHANNELS 3 Zrotation Yrotation Xrotation
		JOINT Chest
		{
			OFFSET 0.00669 2.07367 0.09104
			CHANNELS 3 Zrotation Yrotation Xrotation
			JOINT Chest2
			{
				OFFSET -0.00664 2.06198 -0.04732
				CHANNELS 3 Zrotation Yrotation Xrotation
				JOINT lowerneck
				{
					OFFSET 0 0 0
					CHANNELS 3 Zrotation Yrotation Xrotation
					JOINT Neck
					{
						OFFSET -0.00021 1.49948 0.16345
						CHANNELS 3 Zrotation Yrotation Xrotation
						JOINT Head
						{
							OFFSET 0.06080 1.50567 -0.26702
							CHANNELS 3 Zrotation Yrotation Xrotation
							End Site
							{
								OFFSET 0.01726 1.56470 -0.11854
							}
						}
					}
				}
				JOINT LeftCollar
				{
					OFFSET 0 0 0
					CHANNELS 3 Zrotation Yrotation Xrotation
					JOINT LeftShoulder
					{
						OFFSET 3.14993 0.82932 -0.22488
CHANNELS 3 Zrotation Xrotation Yrotation
						JOINT LeftElbow
						{
OFFSET 0 -5.682360 -0.000000
CHANNELS 3 Zrotation Xrotation Yrotation
							JOINT LeftWrist
							{
OFFSET 0 -3.171120 0.000000
CHANNELS 3 Zrotation Xrotation Yrotation
								JOINT lhand
								{
									OFFSET 0 0 0
CHANNELS 3 Zrotation Xrotation Yrotation
									JOINT LFingers
									{
OFFSET 0 -0.632690 0.000000
CHANNELS 3 Zrotation Xrotation Yrotation
										End Site
										{
OFFSET 0 -0.510090 0.000000
										}
									}
								}
								JOINT LThumb
								{
OFFSET 0 0.000000 0.000000
CHANNELS 3 Zrotation Xrotation Yrotation
									End Site
									{
OFFSET 0 -0.517880 0.517880
									}
								}
							}
						}
					}
				}
				JOINT RightCollar
				{
					OFFSET 0 0 0
					CHANNELS 3 Zrotation Yrotation Xrotation
					JOINT RightShoulder
					{
						OFFSET -3.10571 0.91279 -0.33334
CHANNELS 3 Zrotation Xrotation Yrotation
						JOINT RightElbow
						{
OFFSET 0 -5.871200 -0.000000
CHANNELS 3 Zrotation Xrotation Yrotation
							JOINT RightWrist
							{
OFFSET 0 -3.375890 0.000000
CHANNELS 3 Zrotation Xrotation Yrotation
								JOINT rhand
								{
									OFFSET 0 0 0
CHANNELS 3 Zrotation Xrotation Yrotation
									JOINT RFingers
									{
OFFSET 0 -0.603260 0.000000
CHANNELS 3 Zrotation Xrotation Yrotation
										End Site
										{
OFFSET 0 -0.486360 0.000000
										}
									}
								}
								JOINT RThumb
								{
OFFSET 0 0.000000 0.000000
CHANNELS 3 Zrotation Xrotation Yrotation
									End Site
									{
OFFSET 0 -0.493790 0.493790
									}
								}
							}
						}
					}
				}
			}
		}
	}
}
MOTION
Frames: 12
Frame Time: 0.008333333333333333
9.286000 17.917000 -2.827200 128.722000 -85.300200 -116.777000 0.000000 0.000000 0.000000 -21.922400 -10.744100 -30.234100 4.873200 13.239600 40.272000 1.578100 -10.107500 -22.576200 0.885800 -5.999400 -16.782600 0.000000 0.000000 0.000000 17.799300 12.887900 -22.305700 -4.726700 -13.069300 39.628400 0.952500 17.297900 10.107700 -5.868700 -14.299900 44.452600 1.442400 1.700600 -8.337800 1.800300 2.002900 0.398300 1.313400 0.991900 5.078600 -8.183200 -3.686600 -16.919400 0.896900 -3.239400 18.577200 1.233400 -2.054300 8.769300 0.000000 -0.000000 0.000000 18.509500 3.847600 -10.199100 20.917600 -31.732100 6.006600 8.014400 -6.125700 -31.237900 0.000000 0.000000 0.000000 -7.125000 0.000000 0.000000 -26.907000 59.390600 9.896500 0.000000 -0.000000 0.000000 -7.494200 1.434300 10.839100 -17.617200 -27.664200 -4.370000 -22.561300 5.265100 -26.914900 0.000000 0.000000 0.000000 7.125000 0.000000 -0.000000 4.475600 1.258000 4.389800
8.713347 17.841529 -2.578848 171.638538 -84.870820 -161.566771 0.000000 0.000000 0.000000 -20.480331 -10.526241 -26.351973 5.121355 13.519114 41.344292 2.028786 -4.762428 -25.860909 0.710523 -5.387053 -15.015860 0.000000 0.000000 0.000000 20.758180 12.972385 -17.206795 -4.483125 -12.776905 38.539100 0.998871 17.836584 11.116893 -5.886505 -14.317432 44.524641 -0.705802 1.429746 -9.227280 1.136271 1.904816 0.487919 1.847662 0.894941 5.626709 -6.293303 -2.843903 -16.470345 3.011174 -3.080163 19.146669 1.674272 -1.631183 8.859697 0.000000 0.000000 0.000000 8.413745 5.590313 -13.143057 17.780154 -27.874641 4.446016 11.163390 -4.421123 -31.434921 0.000000 0.000000 0.000000 -7.125000 0.000000 0.000000 -23.844165 60.295145 9.203368 0.000000 0.000000 0.000000 -5.744309 3.917447 6.582768 -17.845070 -27.958288 -4.476380 -23.437189 4.299429 -25.858288 0.000000 0.000000 0.000000 7.125000 0.000000 0.000000 3.818947 2.188184 3.678627
8.314537 17.687146 -2.323282 186.181311 -82.031247 -177.555723 0.000000 0.000000 0.000000 -20.416992 -9.297134 -24.555987 5.737354 14.168901 43.918312 2.601570 -5.376152 -29.362787 0.502021 -4.542020 -12.606801 0.000000 0.000000 0.000000 21.003785 10.168672 -20.130669 -6.559908 -14.948808 47.187808 0.501920 14.519042 13.389184 -5.115832 -13.512803 41.320151 -2.145628 0.979769 -8.368683 -0.144243 1.528632 0.807320 1.253547 0.689641 5.488030 -5.107128 -1.747383 -17.706248 4.404218 -2.186705 20.499482 2.077720 -0.976435 9.503410 0.000000 0.000000 0.000000 1.980431 2.251655 -17.073037 17.048658 -26.921833 4.109331 16.681806 -4.394561 -30.819133 0.000000 0.000000 0.000000 -7.125000 0.000000 0.000000 -17.478298 61.043756 6.952213 0.000000 0.000000 0.000000 -3.983738 4.520382 7.771625 -17.303733 -27.256503 -4.225544 -21.615399 5.586662 -26.493789 0.000000 0.000000 0.000000 7.125000 0.000000 0.000000 4.991283 1.875260 4.843903
7.927801 17.689795 -2.107268 192.666529 -81.250899 -184.980028 0.000000 0.000000 0.000000 -20.782474 -9.069406 -21.541349 5.591249 14.020157 43.318228 2.926844 -5.063058 -31.283790 0.471099 -4.402108 -12.210888 0.000000 0.000000 0.000000 19.112349 12.194148 -29.522713 -10.647158 -17.758061 61.630377 0.454205 11.969301 2.580939 -4.623067 -12.946292 39.167892 -2.701490 -0.180068 -6.589973 0.136040 -0.018701 1.380736 1.657228 -0.093855 5.136306 -4.427619 -0.387762 -19.031109 3.290219 -0.174343 21.336690 1.860106 -0.113271 9.934478 0.000000 0.000000 0.000000 0.648759 -4.580853 -36.882458 18.438631 -28.715167 4.758111 18.450302 -5.419816 -31.269770 0.000000 0.000000 0.000000 -7.125000 0.000000 0.000000 -15.876260 61.912987 6.623014 0.000000 0.000000 0.000000 -3.373162 3.703935 9.193264 -17.574850 -27.609364 -4.350383 -21.693601 5.014375 -26.605389 0.000000 0.000000 0.000000 7.125000 0.000000 0.000000 4.957271 1.745278 4.822242
7.299448 17.764036 -1.967751 197.759785 -82.199581 -189.741922 0.000000 0.000000 0.000000 -21.451220 -8.710794 -17.956001 4.882260 13.249883 40.311438 3.095971 -6.013417 -32.083616 0.377671 -3.946668 -10.926592 0.000000 0.000000 0.000000 15.274205 16.269632 -35.936673 -8.077703 -16.174758 52.839953 0.277011 9.627928 0.808967 -5.206800 -13.612833 41.708337 -2.475063 -1.003952 -6.137315 1.167921 -1.200150 1.534053 2.478349 -0.690260 5.115967 -4.117106 0.296039 -19.114868 2.696532 0.823178 21.709668 1.741993 0.293535 10.043951 0.000000 0.000000 0.000000 1.851481 -11.180223 -51.528049 22.817594 -33.888295 7.036500 14.439807 -8.562200 -30.634252 0.000000 0.000000 0.000000 -7.125000 0.000000 0.000000 -19.748727 60.331220 7.558898 0.000000 0.000000 0.000000 -2.674104 4.203286 7.663282 -17.914035 -28.046956 -4.508711 -21.578383 4.858880 -26.970701 0.000000 0.000000 0.000000 7.125000 0.000000 0.000000 5.069058 1.389125 4.964371
6.452029 17.825389 -1.934638 195.812917 -82.926617 -186.903604 0.000000 0.000000 0.000000 -22.754823 -6.984522 -14.047767 3.931773 12.069012 35.976537 3.079836 -6.246168 -31.965716 0.552110 -4.759733 -13.224635 0.000000 0.000000 0.000000 10.155450 21.409220 -38.540118 -3.747968 -11.816711 35.087361 0.218091 8.994299 -0.537013 -5.801991 -14.233691 44.181866 -2.150876 -1.353953 -6.320256 1.945512 -1.737832 1.669104 3.044390 -0.968426 5.411443 -4.093431 0.477824 -18.977195 2.241812 1.174834 21.705242 1.624583 0.401188 10.007549 0.000000 0.000000 0.000000 2.151600 -12.917138 -50.362170 25.744985 -36.955717 8.733861 15.077341 -9.013004 -31.861379 0.000000 0.000000 0.000000 -7.125000 0.000000 0.000000 -20.053381 61.631536 8.301767 0.000000 0.000000 0.000000 -2.001214 4.839102 5.092141 -17.498692 -27.510469 -4.315189 -20.859708 6.074611 -26.902571 0.000000 0.000000 0.000000 7.125000 0.000000 0.000000 5.490567 1.593423 5.360605
5.430587 17.726752 -2.054218 187.262311 -82.896051 -177.209145 0.000000 0.000000 0.000000 -24.172704 -4.939291 -10.883269 3.457011 11.400467 33.642695 3.114445 -6.934759 -32.075501 0.836566 -5.834649 -16.305518 0.000000 0.000000 0.000000 8.542275 22.439082 -41.478334 -2.884315 -10.505298 30.629171 0.113567 6.085951 0.934562 -5.688539 -14.119539 43.718454 -1.771412 -1.320274 -6.431295 2.148412 -1.738898 1.779272 3.039592 -0.965048 5.585047 -3.777544 0.531444 -18.603556 1.996700 1.221185 20.823209 1.478976 0.438468 9.627867 0.000000 0.000000 0.000000 2.760842 -10.198442 -43.956467 21.790994 -32.739200 6.472794 17.371431 -7.731179 -31.806040 0.000000 0.000000 0.000000 -7.125000 0.000000 0.000000 -17.496950 62.153697 7.420511 0.000000 0.000000 0.000000 -1.808076 5.356017 2.616655 -17.133600 -27.033600 -4.147900 -21.313240 5.790239 -26.915486 0.000000 0.000000 0.000000 7.125000 0.000000 0.000000 5.220948 1.495981 5.104285
4.107503 17.628087 -2.408030 184.455609 -83.615944 -173.441626 0.000000 0.000000 0.000000 -23.739180 -3.712587 -7.089036 3.420365 11.346305 33.457054 2.678801 -9.178655 -29.496973 0.735918 -5.480499 -15.284252 0.000000 0.000000 0.000000 9.884670 24.264320 -39.918658 -3.397940 -11.312825 33.342527 -0.044846 -2.963654 4.022486 -5.234896 -13.643484 41.827748 -1.017980 -1.497028 -6.540002 2.477871 -2.069139 1.989736 2.917206 -1.116550 5.876069 -3.558764 0.383005 -18.730310 1.949588 1.003116 19.728900 1.387707 0.375400 9.276719 0.000000 0.000000 0.000000 2.853385 -5.616142 -33.356020 13.208466 -21.591184 2.529972 17.315073 -1.409440 -32.928649 0.000000 0.000000 0.000000 -7.125000 0.000000 0.000000 -18.510845 63.200576 8.322492 0.000000 0.000000 0.000000 -2.567135 5.862118 -0.819352 -17.196043 -27.115490 -4.176292 -21.314669 6.152671 -26.189711 0.000000 0.000000 0.000000 7.125000 0.000000 0.000000 5.137557 2.245534 4.952546
2.501929 17.693321 -2.897949 186.741554 -84.543504 -175.602381 0.000000 0.000000 0.000000 -21.059490 -0.064879 -5.488346 4.245680 12.480156 37.452619 1.214162 -8.192493 -19.714689 0.894629 -6.028267 -16.866641 0.000000 0.000000 0.000000 13.310508 22.878670 -36.949596 -4.574810 -12.888281 38.951741 -0.121737 -0.212285 6.518221 -6.319538 -14.730962 46.250959 0.732219 -1.202871 -6.219852 2.821992 -1.854068 1.980001 2.321313 -0.958931 5.624786 -3.594036 0.292936 -18.201053 1.487215 0.998872 18.418137 1.219029 0.342716 8.733726 0.000000 0.000000 0.000000 3.037183 3.581657 -29.228802 12.393145 -20.391679 2.237414 14.937318 -2.161542 -34.180647 0.000000 0.000000 0.000000 -7.125000 0.000000 0.000000 -22.327890 63.730767 10.396857 0.000000 0.000000 0.000000 -4.900106 6.355176 -3.614496 -15.957771 -25.463315 -3.627864 -21.714614 7.390249 -26.711548 0.000000 0.000000 0.000000 7.125000 0.000000 0.000000 4.957118 1.631419 4.832304
1.057334 17.799817 -3.374560 285.352309 -88.872425 -273.907339 0.000000 0.000000 0.000000 -15.293593 -1.274632 -17.231978 9.916822 17.361353 59.208001 0.129944 2.614564 -8.299919 1.597072 -7.969564 -22.622415 0.000000 0.000000 0.000000 17.198509 19.211262 -32.402848 -4.995574 -13.378763 40.803481 0.080179 6.629819 7.038481 -6.373819 -14.781005 46.464062 2.150355 -0.736249 -6.820730 3.185077 -1.394974 1.697312 1.947320 -0.693779 5.631073 -4.496348 -1.462886 -17.482169 2.014423 -1.327112 18.415368 1.253350 -0.760155 8.680775 0.000000 0.000000 0.000000 2.968941 6.072327 -32.084727 15.494350 -24.829320 3.431371 14.031758 -5.250642 -34.555121 0.000000 0.000000 0.000000 -7.125000 0.000000 0.000000 -23.701074 63.827669 11.125077 0.000000 0.000000 0.000000 -7.715722 4.402799 -4.728744 -14.315196 -23.183491 -2.951070 -22.045732 10.518699 -26.857577 0.000000 0.000000 0.000000 7.125000 0.000000 0.000000 4.776634 1.417247 4.673332
-0.225283 17.777679 -3.692299 347.310654 -86.468119 -336.592783 0.000000 0.000000 0.000000 -14.650893 -6.166429 -30.499993 11.915268 18.354493 65.719733 1.262467 1.959157 -22.007428 1.214417 -6.990318 -19.686768 0.000000 0.000000 0.000000 20.012080 16.001475 -27.520418 -5.348324 -13.765673 42.306809 0.455775 12.392439 8.419148 -6.320679 -14.732052 46.255487 2.044608 0.479875 -6.606193 2.636486 0.283013 1.891908 1.628331 0.147241 5.678977 -5.276886 -3.034028 -17.046583 2.852107 -3.510985 18.829338 1.392831 -1.758624 8.852733 0.000000 0.000000 0.000000 1.400990 3.866578 -31.426783 19.914144 -30.538723 5.487643 18.447732 -6.481289 -32.983496 0.000000 0.000000 0.000000 -7.125000 0.000000 0.000000 -17.283186 63.551050 7.894763 0.000000 0.000000 0.000000 -11.007258 -1.279797 1.413913 -14.071081 -22.836239 -2.855640 -23.291384 10.860647 -26.110942 0.000000 0.000000 0.000000 7.125000 0.000000 0.000000 3.938261 1.952561 3.810840
-1.543150 17.661480 -3.864080 342.641284 -85.357455 -332.449886 0.000000 0.000000 0.000000 -16.373411 -9.001380 -40.751134 8.321320 16.350453 53.711867 2.528860 -0.054099 -30.128374 1.297876 -7.217525 -20.361423 0.000000 0.000000 0.000000 23.114564 12.810146 -22.604188 -5.417180 -13.838744 42.595388 0.798393 16.277051 11.125086 -6.314011 -14.725879 46.229210 2.707909 1.044489 -6.712965 2.188402 1.008745 1.762669 0.872134 0.538661 5.614630 -4.922147 -2.975942 -16.982315 2.593547 -3.476580 19.012720 1.251524 -1.746806 8.890624 0.000000 0.000000 0.000000 1.232386 2.913761 -32.579707 20.381467 -31.099146 5.727129 19.278639 -6.486278 -32.507557 0.000000 0.000000 0.000000 -7.125000 0.000000 0.000000 -15.932083 63.316440 7.173503 0.000000 0.000000 0.000000 -12.545359 -8.171556 11.105423 -18.629154 -28.955002 -4.850049 -22.763505 5.229352 -25.624274 0.000000 0.000000 0.000000 7.125000 0.000000 0.000000 4.197737 2.562471 4.016814
